<svg xmlns="http://www.w3.org/2000/svg" width="512" height="512" viewBox="0 0 512 512">
  <defs>
    <linearGradient id="bg" x1="0" y1="0" x2="1" y2="1">
      <stop offset="0" stop-color="#7c5cff"/>
      <stop offset="1" stop-color="#4d2fd6"/>
    </linearGradient>
  </defs>
  <rect x="28" y="28" width="456" height="456" rx="108" fill="url(#bg)"/>
  <rect x="112" y="146" width="288" height="220" rx="48" fill="#10131b" opacity="0.96"/>
  <path d="M205 196h102c22 0 40 18 40 40v40c0 22-18 40-40 40H205c-22 0-40-18-40-40v-40c0-22 18-40 40-40z" fill="#f5f3ff"/>
  <circle cx="256" cy="256" r="54" fill="#6243e8"/>
  <circle cx="256" cy="256" r="28" fill="#151827"/>
  <path d="M365 222l55-35v138l-55-35z" fill="#f5f3ff"/>
  <circle cx="166" cy="177" r="13" fill="#45dc91"/>
</svg>
